<svg width="48" height="48" viewBox="0 0 48 48" fill="none" xmlns="http://www.w3.org/2000/svg">
<path fill-rule="evenodd" clip-rule="evenodd" d="M24 0C10.7452 0 0 10.7452 0 24C0 37.2548 10.7452 48 24 48C37.2548 48 48 37.2548 48 24C48 10.7452 37.2548 0 24 0ZM24 1C36.7025 1 47 11.2975 47 24C47 36.7025 36.7025 47 24 47C11.2975 47 1 36.7025 1 24C1 11.2975 11.2975 1 24 1ZM21.5432 19.0509L26.4928 24.0004L21.543 28.9502L22.2501 29.6573L27.9084 23.999L27.2013 23.2919L27.1999 23.2933L22.2503 18.3438L21.5432 19.0509Z" fill="white"/>
</svg>
