<svg width="48" height="48" viewBox="0 0 48 48" fill="none" xmlns="http://www.w3.org/2000/svg">
<path fill-rule="evenodd" clip-rule="evenodd" d="M24 0C37.2548 0 48 10.7452 48 24C48 37.2548 37.2548 48 24 48C10.7452 48 0 37.2548 0 24C0 10.7452 10.7452 0 24 0ZM24 1C11.2975 1 1 11.2975 1 24C1 36.7025 11.2975 47 24 47C36.7025 47 47 36.7025 47 24C47 11.2975 36.7025 1 24 1ZM26.4568 19.0509L21.5072 24.0004L26.457 28.9502L25.7499 29.6573L20.0916 23.999L20.7987 23.2919L20.8001 23.2933L25.7497 18.3438L26.4568 19.0509Z" fill="white"/>
</svg>
