<svg width="33" height="33" viewBox="0 0 33 33" fill="none" xmlns="http://www.w3.org/2000/svg">
<path fill-rule="evenodd" clip-rule="evenodd" d="M11.4978 14.7224L16.3525 19.5771L21.2072 14.7224L20.8623 14.3775L16.6086 18.6312V4.01489H16.1086V18.6435L11.8427 14.3775L11.4978 14.7224ZM7.23188 25.4299V16.0654H6.74414V25.4299L6.7463 25.5365C6.80218 26.9147 7.93717 28.0149 9.32913 28.0149H23.3759L23.4824 28.0127C24.8607 27.9569 25.9609 26.8219 25.9609 25.4299V16.0654H25.4731V25.4299L25.4707 25.5315C25.4177 26.6426 24.5001 27.5272 23.3759 27.5272H9.32913L9.22752 27.5247C8.11643 27.4717 7.23188 26.5541 7.23188 25.4299Z" fill="#262625"/>
<mask id="mask0" mask-type="alpha" maskUnits="userSpaceOnUse" x="6" y="4" width="20" height="25">
<path fill-rule="evenodd" clip-rule="evenodd" d="M11.4979 8.86977L16.3526 4.01508L21.2072 8.86977L20.8624 9.21465L16.6087 4.96094V19.5772H16.1087V4.94864L11.8427 9.21465L11.4979 8.86977ZM7.23188 25.4299V16.0654H6.74414V25.4299L6.7463 25.5365C6.80218 26.9147 7.93717 28.0149 9.32913 28.0149H23.3759L23.4824 28.0127C24.8607 27.9569 25.9609 26.8219 25.9609 25.4299V16.0654H25.4731V25.4299L25.4707 25.5315C25.4177 26.6426 24.5001 27.5272 23.3759 27.5272H9.32913L9.22752 27.5247C8.11643 27.4717 7.23188 26.5541 7.23188 25.4299Z" fill="white"/>
</mask>
<g mask="url(#mask0)">
</g>
</svg>
