<svg xmlns="http://www.w3.org/2000/svg" width="168.115" height="55.024"><g data-name="NVIDIA GeForce RTX"><g data-name="Group 88"><g data-name="Group 87"><g data-name="Group 82"><g data-name="Group 81"><path data-name="Path 161" d="m77.954 0-14.68 55.024h87.414L165.368 0Z" fill="#1e1e1e"/><path data-name="Path 162" d="m165.369 0-14.68 55.024h2.746L168.115 0Z" fill="#76b900"/><path data-name="Path 163" d="M.005.001v55.023h63.269L77.954 0Z" fill="#76b900"/><g data-name="NVIDIA Logo" fill="#fff"><path d="M29.39 36.396v8.31h2.337v-8.31Zm-18.385-.012v8.321h2.36v-6.318h1.826a1.713 1.713 0 0 1 1.328.464 3.128 3.128 0 0 1 .52 2.2v3.654h2.284v-4.6c0-3.281-2.082-3.724-4.12-3.724h-4.198m22.145.011v8.309h3.79c2.019 0 2.678-.337 3.391-1.094a4.668 4.668 0 0 0 .829-2.97 4.948 4.948 0 0 0-.755-2.854c-.866-1.161-2.113-1.387-3.975-1.387Zm2.318 1.809h1a2.108 2.108 0 0 1 2.4 2.363 2.108 2.108 0 0 1-2.4 2.363h-1Zm-9.45-1.809-1.95 6.586-1.863-6.582H19.68l2.669 8.309h3.368l2.688-8.309Zm16.23 8.309h2.337v-8.305H42.25Zm6.557-8.302-3.263 8.3h2.3l.516-1.468h3.862l.485 1.471h2.5l-3.288-8.3Zm8.034 8.988a1.161 1.161 0 1 1 1.156-1.161 1.158 1.158 0 0 1-1.16 1.161Zm0-2.1a.938.938 0 1 0 .917.938.908.908 0 0 0-.921-.937Zm.208 1.554-.223-.478h-.131v.479h-.275v-1.235h.5a.39.39 0 0 1 .409.388.348.348 0 0 1-.227.327l.259.519Zm-.163-1.007h-.191v.321h.191a.161.161 0 1 0 0-.321Zm-6.561-5.921 1.416 3.89h-2.881Z"/><path data-name="Eye Mark" d="M26.305 16.931v-2c.193-.014.388-.024.587-.03 5.436-.172 9 4.692 9 4.692s-3.852 5.373-7.982 5.373a4.989 4.989 0 0 1-1.607-.258v-6.05c2.116.257 2.542 1.2 3.815 3.326l2.83-2.4a7.485 7.485 0 0 0-5.548-2.721 10.185 10.185 0 0 0-1.1.065m0-6.594v2.982c.2-.016.391-.028.587-.035 7.56-.256 12.486 6.227 12.486 6.227s-5.658 6.909-11.551 6.909a8.649 8.649 0 0 1-1.521-.135v1.843a10 10 0 0 0 1.266.082c5.485 0 9.451-2.813 13.292-6.143.636.512 3.244 1.758 3.78 2.3-3.652 3.07-12.163 5.545-16.988 5.545-.465 0-.912-.028-1.351-.071v2.59h20.848v-22.1Zm0 14.375v1.574c-5.073-.908-6.481-6.2-6.481-6.2a10.954 10.954 0 0 1 6.486-3.152v1.727h-.008c-2.123-.256-3.781 1.736-3.781 1.736s.929 3.353 3.789 4.318m-9.01-4.86a12.558 12.558 0 0 1 9.01-4.916v-1.617c-6.649.536-12.408 6.192-12.408 6.192s3.257 9.469 12.408 10.331v-1.714c-6.716-.848-9.014-8.277-9.014-8.277Z"/></g></g></g><g data-name="Group 84"><path data-name="Path 164" d="M104.03 44.704h-4.525l-5.321-8.837h-3.958v8.837h-4.18V23.025h12.951a3.615 3.615 0 0 1 3.61 3.624v5.593a3.615 3.615 0 0 1-3.61 3.624h-.252ZM90.223 32.021h7.03a1.07 1.07 0 0 0 1.077-1.081v-2.957a1.1 1.1 0 0 0-1.077-1.112h-7.03Z" fill="#fff"/><path data-name="Path 165" d="M121.553 23.025v3.782h-6.174v17.9h-4.211v-17.9h-6.176v-3.782Z" fill="#fff"/><path data-name="Path 166" d="M137.636 23.026h4.648l-6.8 10.283 7.177 11.4h-5.056l-4.68-7.4-4.742 7.4h-4.617l7.146-10.919-6.734-10.759h5.058l4.27 6.824Z" fill="#fff"/><g data-name="Group 83"><path data-name="Path 167" d="M145.145 23.026v.231h-.65v1.785h-.26v-1.785h-.62v-.231Zm1.914 0h.266v2.016h-.254v-1.571l-.585 1h-.219l-.549-.955v1.526h-.266v-2.016h.248l.673 1.169Z" fill="#fff"/></g></g><g data-name="Group 86"><g data-name="Group 85" fill="#fff"><path data-name="Path 168" d="M86.043 11.855a1.515 1.515 0 0 1 1.512-1.518h5.729v1.638h-5a.468.468 0 0 0-.465.453v4.262a.466.466 0 0 0 .133.319l.637.639a.439.439 0 0 0 .332.133h2.427a.448.448 0 0 0 .451-.453v-1.637h-2.135v-1.639h3.925v3.862a1.512 1.512 0 0 1-1.512 1.505h-4.032a.459.459 0 0 1-.332-.133l-1.537-1.544a.466.466 0 0 1-.133-.32Z"/><path data-name="Path 169" d="M96.905 11.948v2.131h3.673v1.611h-3.673v2.118h4.575v1.611h-6.339v-9.082h6.339v1.611Z"/><path data-name="Path 170" d="M104.561 19.42h-1.764v-9.083h6.339v1.611h-4.575v2.131h3.673v1.611h-3.673Z"/><path data-name="Path 171" d="M110.388 11.855a1.512 1.512 0 0 1 1.5-1.518h4.535a1.512 1.512 0 0 1 1.5 1.518v6.06a1.5 1.5 0 0 1-1.5 1.505h-4.535a1.5 1.5 0 0 1-1.5-1.505Zm5.331 5.953a.448.448 0 0 0 .451-.453v-4.941a.46.46 0 0 0-.451-.466h-3.13a.46.46 0 0 0-.451.466v4.941a.448.448 0 0 0 .451.453Z"/><path data-name="Path 172" d="M126.951 19.42h-1.9l-2.229-3.7h-1.657v3.7h-1.75v-9.083h5.424a1.514 1.514 0 0 1 1.511 1.518v2.344a1.514 1.514 0 0 1-1.511 1.518h-.106Zm-5.782-5.314h2.944a.448.448 0 0 0 .451-.453v-1.239a.46.46 0 0 0-.451-.466h-2.944Z"/><path data-name="Path 173" d="M133.923 11.948h-3.833a.457.457 0 0 0-.451.453v4.954a.448.448 0 0 0 .451.453h3.833v1.611h-4.518a1.512 1.512 0 0 1-1.512-1.505v-6.06a1.515 1.515 0 0 1 1.512-1.517h4.522Z"/><path data-name="Path 174" d="M137.133 11.948v2.131h3.672v1.611h-3.673v2.118h4.573v1.611h-6.339v-9.082h6.339v1.611Z"/></g></g></g></g></g></svg>