
<?xml version="1.0" standalone="no"?>
<!DOCTYPE svg PUBLIC "-//W3C//DTD SVG 1.1//EN" "http://www.w3.org/Graphics/SVG/1.1/DTD/svg11.dtd" >
<svg xmlns="http://www.w3.org/2000/svg" xmlns:xlink="http://www.w3.org/1999/xlink" version="1.1">
<defs>
<font id="GeForce-Bold-Alt" horiz-adv-x="1388" >
  <font-face 
    font-family="GeForce"
    font-weight="700"
    font-stretch="normal"
    units-per-em="2048"
    panose-1="0 0 0 0 0 0 0 0 0 0"
    ascent="1638"
    descent="-410"
    x-height="1047"
    cap-height="1397"
    bbox="-150 -457 2007 1831.56"
    underline-thickness="102"
    underline-position="-307"
    unicode-range="U+0020-FB02"
  />
<missing-glyph horiz-adv-x="748" 
d="M68 0v1365h544v-1365h-544zM136 68h408v1229h-408v-1229z" />
    <glyph glyph-name=".notdef" horiz-adv-x="748" 
d="M68 0v1365h544v-1365h-544zM136 68h408v1229h-408v-1229z" />
    <glyph glyph-name="glyph1" horiz-adv-x="0" 
 />
    <glyph glyph-name="glyph2" horiz-adv-x="682" 
 />
    <glyph glyph-name="space" unicode=" " horiz-adv-x="450" 
 />
    <glyph glyph-name="exclam" unicode="!" horiz-adv-x="526" 
d="M102 0v256h322v-256h-322zM125 469v924h270v-924h-270z" />
    <glyph glyph-name="quotedbl" unicode="&#x22;" horiz-adv-x="888" 
d="M111 834v548h278v-548h-278zM496 834v548h278v-548h-278z" />
    <glyph glyph-name="numbersign" unicode="#" horiz-adv-x="1458" 
d="M51 295v215h217l94 340h-229v215h289l94 334h260l-94 -334h279l94 334h260l-94 -334h186v-215h-246l-94 -340h258v-215h-317l-82 -293h-260l82 293h-279l-82 -293h-260l82 293h-158zM528 510h279l94 340h-278z" />
    <glyph glyph-name="dollar" unicode="$" horiz-adv-x="1296" 
d="M123 803v360q0 97 68 165.5t163 68.5h228v215h190v-215h354v-248h-354v-322h186q91 -8 153.5 -74.5t62.5 -156.5v-363q0 -97 -68.5 -165t-165.5 -68h-229v-256h-191v256h-373v248h373v323h-184q-91 7 -152 74t-61 158zM383 899q0 -29 20.5 -49.5t49.5 -20.5l129 -2v322
h-129q-29 0 -49.5 -20.5t-20.5 -49.5v-180zM711 248h135q29 0 49 20t20 49v183q0 29 -20 50t-49 21h-135v-323z" />
    <glyph glyph-name="percent" unicode="%" horiz-adv-x="2078" 
d="M72 698v510q0 77 55 132t131 55h375q76 0 131 -55t55 -132v-510q0 -78 -54.5 -132t-131.5 -54h-375q-77 0 -131.5 54t-54.5 132zM330 752q0 -20 14 -33.5t33 -13.5h137q20 0 33.5 13.5t13.5 33.5v403q0 19 -13.5 32t-33.5 13h-137q-19 0 -33 -13t-14 -32v-403zM530 -127
l768 1649h244l6 -2l-778 -1651h-240v4zM1262 182v512q0 77 55 132t131 55h373q78 0 132 -55t54 -132v-512q0 -77 -54 -130.5t-132 -53.5h-383q-76 0 -126 53.5t-50 130.5zM1520 238q0 -19 13.5 -32t33.5 -13h135q19 0 33 13t14 32v403q0 19 -14 32t-33 13h-135
q-20 0 -33.5 -13t-13.5 -32v-403z" />
    <glyph glyph-name="ampersand" unicode="&#x26;" horiz-adv-x="1462" 
d="M92 281v243q0 112 77.5 193t188.5 86l-43 47q-45 44 -71.5 109t-26.5 122v47q0 119 74.5 202t189.5 83h328q115 0 196.5 -81.5t81.5 -196.5v-131h-268v151q0 28 -20 49t-49 21h-224q-30 0 -49.5 -24t-19.5 -64q0 -78 41 -119l538 -588l133 371h240l-207 -551l230 -250
h-314l-92 96l-90 -63q-48 -33 -102 -33h-463q-116 0 -197.5 82t-81.5 199zM360 281q0 -29 20.5 -49.5t49.5 -20.5h393q41 0 78 18l-375 396h-96q-29 0 -49.5 -21t-20.5 -49v-274z" />
    <glyph glyph-name="quotesingle" unicode="'" horiz-adv-x="442" 
d="M82 834v548h278v-551z" />
    <glyph glyph-name="parenleft" unicode="(" horiz-adv-x="757" 
d="M131 233v930q0 97 68.5 164.5t165.5 67.5h325v-236h-229q-29 0 -49.5 -20t-20.5 -49v-785q0 -28 20.5 -48.5t49.5 -20.5h229v-236h-325q-97 0 -165.5 68t-68.5 165z" />
    <glyph glyph-name="parenright" unicode=")" horiz-adv-x="757" 
d="M66 0v236h229q29 0 49.5 20.5t20.5 48.5v785q0 29 -20.5 49t-49.5 20h-229v236h325q97 0 165.5 -67.5t68.5 -164.5v-930q0 -97 -68.5 -165t-165.5 -68h-325z" />
    <glyph glyph-name="asterisk" unicode="*" horiz-adv-x="903" 
d="M72 1116l92 160l203 -131l-11 260h185l-13 -260l207 133l92 -160l-217 -114l221 -113l-92 -160l-211 135l13 -248h-185l11 230l-199 -127l-92 160l223 114z" />
    <glyph glyph-name="plus" unicode="+" horiz-adv-x="966" 
d="M41 588v235h317v324h248v-324h320v-235h-320v-326h-248v326h-317z" />
    <glyph glyph-name="comma" unicode="," horiz-adv-x="485" 
d="M49 -250l123 250h-88v256h319v-199l-151 -309z" />
    <glyph glyph-name="hyphen" unicode="-" horiz-adv-x="925" 
d="M82 508v223h762v-223h-762z" />
    <glyph glyph-name="period" unicode="." horiz-adv-x="485" 
d="M82 0v256h321v-256h-321z" />
    <glyph glyph-name="slash" unicode="/" horiz-adv-x="983" 
d="M152 0l495 1395h258l-495 -1395h-258z" />
    <glyph glyph-name="zero" unicode="0" horiz-adv-x="1243" 
d="M113 231v932q0 97 68 165.5t165 68.5h553q95 0 163 -68.5t68 -165.5v-932q0 -96 -67.5 -163.5t-163.5 -67.5h-553q-97 0 -165 67t-68 164zM383 317q0 -29 21 -49t49 -20h338q29 0 49 20t20 49v762q0 28 -20 49t-49 21h-338q-28 0 -49 -21t-21 -49v-762z" />
    <glyph glyph-name="one" unicode="1" horiz-adv-x="649" 
d="M31 1151v246h485v-1397h-270v1151h-215z" />
    <glyph glyph-name="two" unicode="2" horiz-adv-x="1189" 
d="M113 901v262q0 97 68 165.5t165 68.5h498q97 0 165 -68.5t68 -165.5v-233q0 -99 -82 -178l-501 -514h583v-238h-934v223l641 660q23 20 23 51v156q0 29 -20.5 49t-49.5 20h-309q-19 0 -32 -13.5t-13 -33.5v-211h-270z" />
    <glyph glyph-name="three" unicode="3" horiz-adv-x="1202" 
d="M113 233v181h270v-129q0 -20 13 -33.5t32 -13.5h320q29 0 50 20t21 49v203q0 29 -21 49.5t-50 20.5h-373v235h373q29 0 50 21.5t21 50.5v203q0 29 -21 49t-50 20h-322q-19 0 -31 -13.5t-12 -33.5v-149h-270v200q0 97 68 165.5t165 68.5h510q97 0 165.5 -68.5t68.5 -165.5
v-233q0 -65 -46 -113t-112 -49q66 -3 112 -50.5t46 -113.5v-371q0 -97 -68.5 -165t-165.5 -68h-510q-97 0 -165 68t-68 165z" />
    <glyph glyph-name="four" unicode="4" horiz-adv-x="1163" 
d="M82 315v228l512 854h293l-502 -834h403v262h273v-825h-273v315h-706z" />
    <glyph glyph-name="five" unicode="5" horiz-adv-x="1202" 
d="M113 233v181h270v-129q0 -20 13 -33.5t32 -13.5h322q29 0 49 20t20 49v271q0 29 -20 49t-49 20h-598l-2 2v748h894v-238h-624v-272l2 -2h436q95 0 163.5 -68.5t68.5 -163.5v-420q0 -97 -68 -165t-164 -68h-512q-97 0 -165 68t-68 165z" />
    <glyph glyph-name="six" unicode="6" horiz-adv-x="1224" 
d="M113 231v932q0 97 68 165.5t165 68.5l518 2q97 0 165.5 -68.5t68.5 -165.5v-149h-271v98q0 20 -12 33.5t-31 13.5l-329 -2q-29 0 -49.5 -21.5t-20.5 -50.5v-233h494q97 0 165 -68t68 -163v-392q0 -97 -68 -164t-165 -67h-533q-97 0 -165 67t-68 164zM385 307
q0 -29 20.5 -49t49.5 -20h315q29 0 49.5 20t20.5 49v240q0 29 -20.5 49t-49.5 20h-385v-309z" />
    <glyph glyph-name="seven" unicode="7" horiz-adv-x="1140" 
d="M82 1141v256h977v-215l-541 -1182h-325l20 4l528 1137h-659z" />
    <glyph glyph-name="eight" unicode="8" horiz-adv-x="1263" 
d="M113 231v365q0 66 44.5 113.5t108.5 50.5q-64 1 -108.5 48.5t-44.5 113.5v241q0 97 67.5 165.5t163.5 68.5h574q97 0 165 -68.5t68 -165.5v-239q0 -66 -46 -113.5t-112 -48.5q66 -3 112 -50.5t46 -113.5v-367q0 -97 -68 -164t-165 -67h-574q-97 0 -164 67t-67 164z
M383 307q0 -29 20.5 -49t49.5 -20h356q30 0 51 20t21 49v230q0 29 -21 49t-51 20h-356q-29 0 -49.5 -20t-20.5 -49v-230zM383 915q0 -29 20.5 -49t49.5 -20h356q30 0 51 20t21 49v172q0 29 -21.5 50.5t-50.5 21.5h-356q-29 0 -49.5 -21.5t-20.5 -50.5v-172z" />
    <glyph glyph-name="nine" unicode="9" horiz-adv-x="1224" 
d="M113 233v150h270v-98q0 -20 12 -33.5t31 -13.5h346q29 0 49.5 20t20.5 49v223h-496q-97 0 -165 68.5t-68 165.5v399q0 97 68 165.5t165 68.5h533q97 0 165 -68.5t68 -165.5v-932q0 -97 -68 -164t-165 -67h-533q-97 0 -165 68t-68 165zM383 838q0 -29 20.5 -49.5
t49.5 -20.5h389v319q0 29 -20.5 50.5t-49.5 21.5h-319q-29 0 -49.5 -21.5t-20.5 -50.5v-249z" />
    <glyph glyph-name="colon" unicode=":" horiz-adv-x="485" 
d="M82 0v297h321v-297h-321zM82 750v297h321v-297h-321z" />
    <glyph glyph-name="semicolon" unicode=";" horiz-adv-x="485" 
d="M41 -211l127 211h-84v297h319v-240l-219 -372zM80 750v297h321v-297h-321z" />
    <glyph glyph-name="less" unicode="&#x3c;" horiz-adv-x="999" 
d="M45 549v186l862 439v-263l-545 -260l545 -317v-262z" />
    <glyph glyph-name="equal" unicode="=" horiz-adv-x="987" 
d="M82 344v211h823v-211h-823zM82 721v211h823v-211h-823z" />
    <glyph glyph-name="greater" unicode="&#x3e;" horiz-adv-x="999" 
d="M92 72v262l543 317l-543 260v263l862 -439v-186z" />
    <glyph glyph-name="question" unicode="?" horiz-adv-x="1169" 
d="M92 901v262q0 97 68.5 165.5t165.5 68.5h497q97 0 165.5 -68.5t68.5 -165.5v-411q0 -82 -55.5 -137.5t-137.5 -55.5h-176q-19 0 -32 -13.5t-13 -33.5v-78h-270v195q0 66 42.5 108.5t108.5 42.5h193q29 0 49 20.5t20 49.5v229q0 29 -20 49.5t-49 20.5h-309
q-19 0 -32.5 -13.5t-13.5 -33.5v-201h-270zM334 0v297h321v-297h-321z" />
    <glyph glyph-name="at" unicode="@" horiz-adv-x="1576" 
d="M31 692q0 154 60 294.5t161.5 242t241.5 161.5t294 60q172 0 316.5 -50t240 -135t148.5 -197t53 -237q0 -243 -109 -369t-284 -126q-89 0 -158 31.5t-96 87.5l-72 -74q-43 -43 -114 -43h-56q-116 0 -176.5 60t-60.5 177v193q0 116 61 177t176 61h56q71 0 123 -52l38 -39
v84h263v-366q0 -103 90 -103q92 0 92 197q0 260 -139.5 391t-391.5 131q-144 0 -266 -74.5t-193 -203t-71 -279.5t71 -279.5t193 -203t266 -74.5q182 0 324 117l152 -150q-212 -168 -476 -168q-154 0 -294 60t-241.5 161.5t-161.5 242t-60 294.5zM684 575q0 -29 20.5 -49
t49.5 -20h49q29 0 50 20.5t21 48.5v193q0 28 -21 49t-50 21h-49q-29 0 -49.5 -21t-20.5 -49v-193z" />
    <glyph glyph-name="A" unicode="A" horiz-adv-x="1331" 
d="M10 0l518 1399h275l518 -1399h-303l-98 276h-537l-98 -276h-275zM463 504h375l-189 528z" />
    <glyph glyph-name="B" unicode="B" horiz-adv-x="1316" 
d="M133 0v1397h817q97 0 165.5 -68.5t68.5 -165.5v-262q0 -55 -35 -99.5t-88 -58.5q59 -14 101 -58t42 -99v-355q0 -95 -68 -163t-165 -68h-838zM403 248h459q30 0 51 20t21 49v238q0 29 -21.5 49.5t-50.5 20.5h-459v-377zM403 852h439q29 0 50 21t21 49v157q0 28 -21 49
t-50 21h-439v-297z" />
    <glyph glyph-name="C" unicode="C" horiz-adv-x="1146" 
d="M113 231v932q0 97 68 165.5t165 68.5h698v-248h-591q-29 0 -49.5 -21t-20.5 -49v-762q0 -29 20.5 -49t49.5 -20h591v-248h-698q-97 0 -165 68t-68 163z" />
    <glyph glyph-name="D" unicode="D" horiz-adv-x="1409" 
d="M133 0v1397h721q183 0 312.5 -130t129.5 -313v-512q0 -184 -129.5 -313t-312.5 -129h-721zM403 248h408q88 0 149.5 61.5t61.5 147.5v481q0 88 -61.5 149.5t-149.5 61.5h-408v-901z" />
    <glyph glyph-name="E" unicode="E" horiz-adv-x="1173" 
d="M133 0v1397h979v-248h-706v-328h567v-248h-567v-325h706v-248h-979z" />
    <glyph glyph-name="F" unicode="F" horiz-adv-x="1173" 
d="M133 0v1397h979v-248h-706v-328h567v-248h-567v-573h-273z" />
    <glyph glyph-name="G" unicode="G" horiz-adv-x="1421" 
d="M123 307v856q0 97 68 165.5t165 68.5h885v-252h-772q-29 0 -50.5 -21t-21.5 -49v-655q0 -28 21 -49l98 -99q20 -20 51 -20h375q29 0 49.5 20.5t20.5 49.5v251h-330v252h606v-594q0 -95 -68 -163t-165 -68h-623q-31 0 -51 20l-238 238q-20 20 -20 49z" />
    <glyph glyph-name="H" unicode="H" horiz-adv-x="1429" 
d="M133 0v1397h270v-576h623v576h270v-1397h-270v573h-623v-573h-270z" />
    <glyph glyph-name="I" unicode="I" horiz-adv-x="538" 
d="M133 0v1397h273v-1397h-273z" />
    <glyph glyph-name="J" unicode="J" horiz-adv-x="952" 
d="M31 -10v248h307q87 0 148 60.5t61 147.5v951h272v-965q0 -184 -128.5 -313t-313.5 -129h-346z" />
    <glyph glyph-name="K" unicode="K" horiz-adv-x="1302" 
d="M133 0v1397h270v-572h162l371 572h311l-450 -668l495 -729h-352l-377 569h-160v-569h-270z" />
    <glyph glyph-name="L" unicode="L" horiz-adv-x="1079" 
d="M133 0v1397h270v-1149h615v-248h-885z" />
    <glyph glyph-name="M" unicode="M" horiz-adv-x="1570" 
d="M133 0v1397h254l416 -658l399 658h236v-1397h-273v895l-305 -502h-131l-326 508v-901h-270z" />
    <glyph glyph-name="N" unicode="N" horiz-adv-x="1445" 
d="M133 2v1397h279l630 -928v928h271v-1397h-279l-631 926v-926h-270z" />
    <glyph glyph-name="O" unicode="O" 
d="M113 231v932q0 97 68 165.5t163 68.5h700q95 0 163.5 -68.5t68.5 -165.5v-932q0 -96 -68 -163.5t-164 -67.5h-700q-96 0 -163.5 67.5t-67.5 163.5zM383 317q0 -29 20.5 -49t49.5 -20h483q29 0 49.5 20t20.5 49v760q0 29 -20.5 50.5t-49.5 21.5h-483q-29 0 -49.5 -21.5
t-20.5 -50.5v-760z" />
    <glyph glyph-name="P" unicode="P" horiz-adv-x="1224" 
d="M133 0v1397h797q97 0 165 -68.5t68 -165.5v-360q0 -97 -68 -165.5t-165 -68.5h-527v-569h-270zM403 817h420q29 0 49.5 20.5t20.5 49.5v190q0 29 -20.5 50.5t-49.5 21.5h-420v-332z" />
    <glyph glyph-name="Q" unicode="Q" 
d="M113 231v932q0 97 68 165.5t165 68.5h698q97 0 164.5 -68.5t67.5 -165.5v-932q0 -78 -48 -140.5t-124 -84.5l172 -287h-322l-168 281h-440q-97 0 -165 67t-68 164zM383 317q0 -29 21 -49t51 -20h481q29 0 49.5 20t20.5 49v760q0 29 -20.5 50.5t-49.5 21.5h-481
q-29 0 -50.5 -21.5t-21.5 -50.5v-760z" />
    <glyph glyph-name="R" unicode="R" horiz-adv-x="1337" 
d="M133 0v1397h838q97 0 165 -68.5t68 -165.5v-360q0 -97 -68 -165.5t-165 -68.5h-17l342 -569h-292l-345 569h-256v-569h-270zM403 817h455q29 0 49.5 20.5t20.5 49.5v190q0 29 -20.5 50.5t-49.5 21.5h-455v-332z" />
    <glyph glyph-name="S" unicode="S" horiz-adv-x="1296" 
d="M123 817v346q0 97 68 165.5t163 68.5h772v-248h-663q-29 0 -49.5 -20.5t-20.5 -49.5v-145q0 -29 20.5 -49.5t49.5 -20.5l495 -2q91 -8 153.5 -74.5t62.5 -156.5v-398q0 -97 -68.5 -165t-165.5 -68h-793v248h687q29 0 49 20t20 49v197q0 30 -20 51t-49 21h-498
q-91 7 -152 73.5t-61 157.5z" />
    <glyph glyph-name="T" unicode="T" horiz-adv-x="1193" 
d="M61 1153v244h1072v-244h-400v-1153h-272v1153h-400z" />
    <glyph glyph-name="U" unicode="U" horiz-adv-x="1411" 
d="M123 428v971h272v-955q0 -88 61.5 -149.5t147.5 -61.5h203q88 0 148.5 61.5t60.5 149.5v955h272v-971q0 -183 -129.5 -312.5t-312.5 -129.5h-281q-183 0 -312.5 129.5t-129.5 312.5z" />
    <glyph glyph-name="V" unicode="V" horiz-adv-x="1335" 
d="M10 1399h305l373 -1032l359 1032h278l-508 -1399h-278z" />
    <glyph glyph-name="W" unicode="W" horiz-adv-x="1918" 
d="M10 1399h303l273 -953l270 953h229l289 -953l256 953h279l-422 -1399h-238l-284 901l-269 -901h-237z" />
    <glyph glyph-name="X" unicode="X" horiz-adv-x="1257" 
d="M10 0l463 705l-436 694h328l276 -441l281 441h301l-441 -664l465 -735h-327l-304 477l-307 -477h-299z" />
    <glyph glyph-name="Y" unicode="Y" horiz-adv-x="1183" 
d="M10 1399h318l280 -471l283 471h283l-447 -737v-662h-270v662z" />
    <glyph glyph-name="Z" unicode="Z" horiz-adv-x="1269" 
d="M102 0v184l672 965h-655v248h1005v-185l-667 -964h710v-248h-1065z" />
    <glyph glyph-name="bracketleft" unicode="[" horiz-adv-x="755" 
d="M133 0v1395h557v-248h-287v-899h287v-248h-557z" />
    <glyph glyph-name="backslash" unicode="\" horiz-adv-x="952" 
d="M100 1399h248l498 -1399h-248z" />
    <glyph glyph-name="bracketright" unicode="]" horiz-adv-x="755" 
d="M66 0v248h286v899h-286v248h557v-1395h-557z" />
    <glyph glyph-name="asciicircum" unicode="^" horiz-adv-x="1036" 
d="M10 811l383 588h248l385 -588h-291l-221 360l-221 -360h-283z" />
    <glyph glyph-name="underscore" unicode="_" horiz-adv-x="1048" 
d="M82 0v211h885v-211h-885z" />
    <glyph glyph-name="grave" unicode="`" horiz-adv-x="555" 
d="M72 1313h307l158 -275h-279z" />
    <glyph glyph-name="a" unicode="a" horiz-adv-x="1036" 
d="M72 233v152q0 97 67 165t164 68h373v152q0 29 -20.5 49.5t-49.5 20.5h-198q-19 0 -32.5 -13.5t-13.5 -33.5v-23h-245v45q0 97 68 165.5t165 68.5h314q117 0 198.5 -81.5t81.5 -197.5v-770h-268v72l-58 -39q-51 -33 -104 -33h-211q-97 0 -164 68t-67 165zM315 238
q0 -20 13.5 -34t33.5 -14h267q20 0 33.5 14t13.5 34v194h-314q-20 0 -33.5 -13.5t-13.5 -33.5v-147z" />
    <glyph glyph-name="b" unicode="b" horiz-adv-x="1083" 
d="M92 0v1397h268v-418l58 39q48 31 104 31h199q117 0 198.5 -81.5t81.5 -197.5v-489q0 -117 -81.5 -199t-198.5 -82h-199q-53 0 -104 33l-58 37v-70h-268zM360 281q0 -29 20.5 -49.5t49.5 -20.5h234q29 0 49 20.5t20 49.5v489q0 28 -20 49t-49 21h-234q-29 0 -49.5 -21
t-20.5 -49v-489z" />
    <glyph glyph-name="c" unicode="c" horiz-adv-x="884" 
d="M82 281v489q0 116 81.5 197.5t196.5 81.5h443v-209h-383q-29 0 -49.5 -21t-20.5 -49v-489q0 -29 20.5 -49.5t49.5 -20.5h383v-211h-443q-116 0 -197 82t-81 199z" />
    <glyph glyph-name="d" unicode="d" horiz-adv-x="1081" 
d="M82 281v489q0 116 81.5 197.5t196.5 81.5h201q55 0 103 -31l59 -39v420h266v-1399h-266v70l-59 -37q-51 -33 -103 -33h-201q-116 0 -197 82t-81 199zM350 281q0 -29 20.5 -49.5t49.5 -20.5h231q29 0 50.5 20.5t21.5 49.5v489q0 28 -21.5 49t-50.5 21h-231
q-29 0 -49.5 -21t-20.5 -49v-489z" />
    <glyph glyph-name="e" unicode="e" horiz-adv-x="1038" 
d="M82 281v489q0 116 81.5 197.5t198.5 81.5h361q97 0 165 -68.5t68 -165.5v-379l-4 -4h-602v-151q0 -29 20.5 -49.5t49.5 -20.5h524v-211h-582q-117 0 -198.5 82t-81.5 199zM350 618h359l2 3v172q0 20 -13 33.5t-32 13.5h-269q-20 0 -33.5 -13.5t-13.5 -33.5v-175z" />
    <glyph glyph-name="f" unicode="f" horiz-adv-x="759" 
d="M61 840v209h140v69q0 116 81.5 198.5t198.5 82.5h258v-211h-200q-29 0 -49.5 -20.5t-20.5 -49.5v-69h256v-209h-256v-840h-268v840h-140z" />
    <glyph glyph-name="g" unicode="g" horiz-adv-x="1081" 
d="M82 281v489q0 116 81.5 197.5t196.5 81.5h201q55 0 103 -31l59 -39v70h266v-1119q0 -116 -81.5 -197t-196.5 -81h-551v209h491q28 -2 49.5 16.5t22.5 46.5v148l-59 -39q-48 -31 -103 -31h-201q-115 0 -196.5 81.5t-81.5 197.5zM350 281q0 -29 20.5 -49.5t49.5 -20.5h231
q29 0 50.5 20.5t21.5 49.5v489q0 28 -21.5 49t-50.5 21h-231q-29 0 -49.5 -21t-20.5 -49v-489z" />
    <glyph glyph-name="h" unicode="h" horiz-adv-x="1091" 
d="M92 0v1399h266v-420l60 39q48 31 102 31h201q115 0 196.5 -81.5t81.5 -197.5v-770h-268v770q0 28 -20 49t-49 21h-232q-29 0 -50.5 -21t-21.5 -49v-770h-266z" />
    <glyph glyph-name="i" unicode="i" horiz-adv-x="452" 
d="M92 0v1049h268v-1049h-268zM92 1188v211h268v-211h-268z" />
    <glyph glyph-name="j" unicode="j" horiz-adv-x="534" 
d="M0 -137h104q29 0 49.5 20t20.5 49v1117h268v-1117q0 -116 -81.5 -197t-198.5 -81h-162v209zM174 1188v211h268v-211h-268z" />
    <glyph glyph-name="k" unicode="k" horiz-adv-x="1019" 
d="M92 0v1397h268v-723h119l205 375h291l-266 -482l321 -567h-311l-248 438h-111v-438h-268z" />
    <glyph glyph-name="l" unicode="l" horiz-adv-x="544" 
d="M92 270v1127h268v-1127q0 -29 20.5 -49t49.5 -20h105v-211h-164q-116 0 -197.5 81.5t-81.5 198.5z" />
    <glyph glyph-name="m" unicode="m" horiz-adv-x="1640" 
d="M92 0v1049h268v-70l58 39q48 31 104 31h125q63 0 121 -28t98 -77q38 49 96 77t121 28h187q116 0 197 -82t81 -199v-768h-268v768q0 29 -20.5 50.5t-49.5 21.5h-186q-29 0 -49.5 -21.5t-20.5 -50.5v-768h-268v768q0 29 -20.5 50.5t-49.5 21.5h-186q-29 0 -49.5 -21.5
t-20.5 -50.5v-768h-268z" />
    <glyph glyph-name="n" unicode="n" horiz-adv-x="1091" 
d="M92 0v1049h268v-70l58 39q48 31 102 31h201q116 0 197 -82t81 -199v-768h-268v768q0 30 -20 51t-49 21h-232q-29 0 -49.5 -21.5t-20.5 -50.5v-768h-268z" />
    <glyph glyph-name="o" unicode="o" horiz-adv-x="1071" 
d="M82 281v487q0 117 81 199t197 82h351q116 0 197 -82t81 -199v-487q0 -117 -81 -199t-197 -82h-351q-116 0 -197 82t-81 199zM348 281q0 -29 21 -49.5t49 -20.5h233q29 0 49.5 20.5t20.5 49.5v487q0 29 -20.5 50.5t-49.5 21.5h-233q-28 0 -49 -21.5t-21 -50.5v-487z" />
    <glyph glyph-name="p" unicode="p" horiz-adv-x="1083" 
d="M92 -348v1397h268v-70l58 39q48 31 104 31h199q117 0 198.5 -82t81.5 -199v-487q0 -117 -81.5 -199t-198.5 -82h-199q-53 0 -104 33l-58 37v-418h-268zM360 281q0 -29 20.5 -49.5t49.5 -20.5h234q29 0 49 20.5t20 49.5v487q0 30 -20 51t-49 21h-234q-29 0 -49.5 -21.5
t-20.5 -50.5v-487z" />
    <glyph glyph-name="q" unicode="q" horiz-adv-x="1081" 
d="M82 281v487q0 117 81.5 199t198.5 82h199q58 0 103 -31l59 -39v70h266v-1397h-266v418l-59 -37q-48 -33 -103 -33h-199q-117 0 -198.5 82t-81.5 199zM350 281q0 -29 20.5 -49.5t49.5 -20.5h233q28 0 49 20.5t21 49.5v487q0 29 -21 50.5t-49 21.5h-233q-29 0 -49.5 -21.5
t-20.5 -50.5v-487z" />
    <glyph glyph-name="r" unicode="r" horiz-adv-x="704" 
d="M92 0v1049h268v-70l58 39q48 31 102 31h154v-209h-244q-29 0 -49.5 -21.5t-20.5 -50.5v-768h-268z" />
    <glyph glyph-name="s" unicode="s" horiz-adv-x="993" 
d="M72 637v178q0 96 67.5 164t163.5 68h571v-209h-536q-19 0 -36 -13t-17 -30v-99q0 -17 17 -30t36 -13h350q97 0 165.5 -68t68.5 -165v-189q0 -95 -68.5 -163t-165.5 -68h-586v209h551q20 0 38 13t18 30v108q0 17 -18 30t-38 13h-350q-96 0 -163.5 68.5t-67.5 165.5z" />
    <glyph glyph-name="t" unicode="t" horiz-adv-x="720" 
d="M41 838v209h139v247h269v-247h221v-209h-221v-570q0 -29 20 -49t49 -20h105v-209h-162q-117 0 -199 81t-82 197v570h-139z" />
    <glyph glyph-name="u" unicode="u" horiz-adv-x="1093" 
d="M92 279v768h268v-768q0 -29 20.5 -49.5t49.5 -20.5h234q29 0 49 20.5t20 49.5v768h268v-1047h-268v70l-57 -39q-48 -31 -105 -31h-198q-116 0 -198.5 82t-82.5 197z" />
    <glyph glyph-name="v" unicode="v" horiz-adv-x="1056" 
d="M10 1047h281l258 -666l237 666h261l-408 -1047h-221z" />
    <glyph glyph-name="w" unicode="w" horiz-adv-x="1544" 
d="M10 1047h277l213 -654l178 654h205l209 -650l182 650h260l-332 -1047h-219l-209 573l-180 -573h-213z" />
    <glyph glyph-name="x" unicode="x" horiz-adv-x="1032" 
d="M10 0l359 522l-351 525h301l199 -299l195 299h286l-344 -502l367 -545h-301l-217 322l-207 -322h-287z" />
    <glyph glyph-name="y" unicode="y" horiz-adv-x="1056" 
d="M10 1047h281l272 -705l223 705h261l-441 -1203q-41 -107 -110 -149.5t-162 -42.5h-287v209h248q49 0 67 41l52 106z" />
    <glyph glyph-name="z" unicode="z" horiz-adv-x="954" 
d="M61 0v168l500 670h-469v209h785v-168l-504 -670h520v-209h-832z" />
    <glyph glyph-name="braceleft" unicode="{" horiz-adv-x="870" 
d="M61 580v247h140q29 0 49 21t20 51v266q0 97 68.5 164.5t165.5 67.5h325v-248h-217q-29 0 -49 -20.5t-20 -49.5v-213q0 -65 -46 -112.5t-112 -48.5q66 -3 112 -50.5t46 -113.5v-224q0 -28 20 -48.5t49 -20.5h217v-248h-325q-97 0 -165.5 68t-68.5 165v277q0 29 -20 49.5
t-49 20.5h-140z" />
    <glyph glyph-name="bar" unicode="|" horiz-adv-x="544" 
d="M145 -350v1732h256v-1732h-256z" />
    <glyph glyph-name="braceright" unicode="}" horiz-adv-x="870" 
d="M41 0v248h217q29 0 49.5 20.5t20.5 48.5v224q0 66 45 113.5t110 50.5q-64 1 -109.5 48.5t-45.5 112.5v213q0 29 -20.5 49.5t-49.5 20.5h-217v248h326q97 0 165 -67.5t68 -164.5v-266q0 -29 20.5 -50.5t49.5 -21.5h139v-247h-139q-29 0 -49.5 -20.5t-20.5 -49.5v-277
q0 -97 -68 -165t-165 -68h-326z" />
    <glyph glyph-name="uni00A0" unicode="&#xa0;" horiz-adv-x="1024" 
 />
    <glyph glyph-name="exclamdown" unicode="&#xa1;" horiz-adv-x="526" 
d="M102 1137v256h322v-256h-322zM131 0h270v924h-270v-924z" />
    <glyph glyph-name="cent" unicode="&#xa2;" horiz-adv-x="1077" 
d="M82 281v489q0 116 81.5 197.5t196.5 81.5h82v260h199v-260h121q97 0 165 -68.5t68 -165.5v-92h-270v80q0 20 -13 33.5t-32 13.5h-49v-649h47q18 0 31.5 12.5t13.5 32.5v80h270v-93q0 -97 -68 -165t-165 -68h-119v-254h-199v254h-82q-116 0 -197 82t-81 199zM350 270
q0 -29 20.5 -49t49.5 -20h33v649h-33q-29 0 -49.5 -21t-20.5 -49v-510z" />
    <glyph glyph-name="sterling" unicode="&#xa3;" horiz-adv-x="1069" 
d="M20 631v182h154v344q0 97 68 169.5t164 72.5l344 -2q97 0 165 -68.5t68 -165.5v-139h-240v119q0 20 -13 33.5t-32 13.5h-196q-19 0 -36 -13t-17 -30v-334h374v-182h-374v-391h559v-240h-967v168h80q19 0 36 13t17 30v420h-154z" />
    <glyph glyph-name="currency" unicode="&#xa4;" horiz-adv-x="1214" 
d="M51 203l193 192q-31 60 -31 131v201q0 53 18 100l-172 174l166 168l176 -176q54 15 91 15h247q14 0 66 -9l182 183l160 -170l-160 -160q31 -57 31 -125v-201q0 -67 -33 -131l178 -178l-168 -166l-200 201q-27 -6 -56 -6h-247q-41 0 -74 8l-209 -209zM479 526
q0 -29 21 -49t49 -20h131q29 0 49.5 20t20.5 49v201q0 29 -20.5 50.5t-49.5 21.5h-131q-28 0 -49 -21.5t-21 -50.5v-201z" />
    <glyph glyph-name="yen" unicode="&#xa5;" horiz-adv-x="1183" 
d="M10 1399h318l280 -471l283 471h283l-443 -729h244v-203h-248v-53h248v-203h-248v-211h-270v211h-244v203h244v53h-244v203h238z" />
    <glyph glyph-name="brokenbar" unicode="&#xa6;" horiz-adv-x="544" 
d="M133 -348v733h279v-733h-279zM133 670v712h279v-712h-279z" />
    <glyph glyph-name="section" unicode="&#xa7;" horiz-adv-x="995" 
d="M72 1167q0 96 67.5 164t163.5 68h571v-209h-491q-19 0 -36 -13t-17 -30v-100h358q97 0 165.5 -68.5t68.5 -165.5q0 -413 2 -481v-4v-97q0 -95 -68 -163t-164 -68h-571v209h491q19 0 36.5 13t17.5 30v100h-359q-97 0 -165 68.5t-68 165.5zM332 614q0 -17 17.5 -30
t37.5 -13h277v213q0 17 -18 30t-38 13h-276v-213z" />
    <glyph glyph-name="dieresis" unicode="&#xa8;" horiz-adv-x="827" 
d="M102 1171v215h269v-215h-269zM457 1171v215h268v-215h-268z" />
    <glyph glyph-name="copyright" unicode="&#xa9;" horiz-adv-x="1576" 
d="M31 692q0 154 60 294.5t161.5 242t241.5 161.5t294 60t294.5 -60t242 -161.5t161.5 -242t60 -294.5t-60 -294.5t-161.5 -242t-242 -161.5t-294.5 -60t-294 60t-241.5 161.5t-161.5 242t-60 294.5zM258 692q0 -151 71 -279.5t193 -203t266 -74.5q108 0 206.5 44t169.5 119
t113 178t42 216t-42 216t-113 178t-169.5 119t-206.5 44q-144 0 -266 -74.5t-193 -203t-71 -279.5zM518 547q0 -101 48.5 -150t148.5 -49h299v197h-185q-29 0 -49 20t-20 49v172q0 28 20 49t49 21h185v193h-299q-197 0 -197 -197v-305z" />
    <glyph glyph-name="ordfeminine" unicode="&#xaa;" horiz-adv-x="800" 
d="M74 739v236q0 119 164 119h266v108q0 47 -49 47h-133q-19 0 -32.5 -13.5t-13.5 -33.5v-59h-188v61q0 193 193 193h251q70 0 116 -47t46 -129v-574h-190v72l-58 -39q-51 -33 -104 -33h-106q-162 0 -162 92zM274 809q0 -25 35 -25h148q20 0 33.5 13.5t13.5 33.5v121h-199
q-16 0 -23.5 -4t-7.5 -18v-121z" />
    <glyph glyph-name="guillemotleft" unicode="&#xab;" horiz-adv-x="894" 
d="M31 514v10q13 25 34.5 65t67.5 125.5t76 142t29 56.5h256l-222 -393l224 -381h-258zM399 514v10q13 25 34.5 65t67.5 125.5t76 142t29 56.5h256l-221 -393l223 -381h-258z" />
    <glyph glyph-name="uni00AD" unicode="&#xad;" horiz-adv-x="925" 
d="M82 508v223h762v-223h-762z" />
    <glyph glyph-name="registered" unicode="&#xae;" horiz-adv-x="970" 
d="M31 971q0 187 133.5 320.5t320.5 133.5q188 0 321.5 -133.5t133.5 -320.5t-134 -321t-321 -134t-320.5 133.5t-133.5 321.5zM184 971q0 -132 87.5 -225t213.5 -93t213.5 93t87.5 225q0 131 -87.5 224t-213.5 93t-213.5 -93t-87.5 -224zM313 764v420h248q56 0 85.5 -26
t29.5 -73v-79q0 -61 -62 -76l76 -166h-162l-55 141h-12v-141h-148zM461 956h28q35 0 35 29v64q0 17 -8 23.5t-27 6.5h-28v-123z" />
    <glyph glyph-name="macron" unicode="&#xaf;" horiz-adv-x="720" 
d="M102 1182v211h516v-211h-516z" />
    <glyph glyph-name="degree" unicode="&#xb0;" horiz-adv-x="686" 
d="M51 1006v202q0 76 55.5 131.5t131.5 55.5h211q76 0 131 -55t55 -132v-202q0 -78 -54.5 -132.5t-131.5 -54.5h-211q-77 0 -132 54.5t-55 132.5zM248 1018q0 -20 14 -33.5t33 -13.5h96q20 0 33.5 13.5t13.5 33.5v178q0 19 -13.5 32t-33.5 13h-96q-19 0 -33 -13t-14 -32
v-178z" />
    <glyph glyph-name="plusminus" unicode="&#xb1;" horiz-adv-x="966" 
d="M102 160h762v223h-762v-223zM143 670v235h215v201h248v-201h217v-235h-217v-203h-248v203h-215z" />
    <glyph glyph-name="uni00B2" unicode="&#xb2;" horiz-adv-x="882" 
d="M86 1065v172q0 70 44 115t118 45h323q74 0 118 -45t44 -115l-2 -117q0 -99 -82 -178l-235 -211h350v-207h-672v174l400 371q22 19 22 51v68q0 13 -13 21t-28 8h-125q-14 0 -23.5 -9t-9.5 -26v-117h-229z" />
    <glyph glyph-name="uni00B3" unicode="&#xb3;" horiz-adv-x="794" 
d="M51 682v90h230v-35q0 -17 9 -26t23 -9h170q13 0 22 8.5t9 20.5v137q0 13 -8.5 21t-22.5 8h-202v168h192q41 0 41 37v86q0 13 -13 21t-28 8h-160q-14 0 -23 -9t-9 -26v-35h-230v90q0 70 44 115t118 45h358q74 0 118 -45t44 -115l-4 -145q-1 -37 -29 -68t-71 -45
q50 -11 82 -43.5t32 -81.5v-160q0 -79 -49.5 -125.5t-122.5 -46.5h-358q-74 0 -118 45t-44 115z" />
    <glyph glyph-name="acute" unicode="&#xb4;" horiz-adv-x="555" 
d="M88 1038l158 275h307l-186 -275h-279z" />
    <glyph glyph-name="paragraph" unicode="&#xb6;" horiz-adv-x="1429" 
d="M61 803v360q0 97 68.5 165.5t165.5 68.5h1001v-1397h-270v1190h-223v-1190h-273v569h-235q-97 0 -165.5 68.5t-68.5 165.5zM332 866q0 -31 20.5 -60.5t48.5 -29.5h129v414h-129q-29 0 -49 -21t-20 -51v-252z" />
    <glyph glyph-name="periodcentered" unicode="&#xb7;" horiz-adv-x="485" 
d="M82 532v338h321v-338h-321z" />
    <glyph glyph-name="cedilla" unicode="&#xb8;" horiz-adv-x="1024" 
d="M365 -285h239v88h-168v252h148v-104h88q72 0 103.5 -24.5t31.5 -90.5v-151q0 -69 -30 -93t-103 -24h-309v147z" />
    <glyph glyph-name="uni00B9" unicode="&#xb9;" horiz-adv-x="526" 
d="M51 1192v205h342v-871h-229v666h-113z" />
    <glyph glyph-name="ordmasculine" unicode="&#xba;" horiz-adv-x="788" 
d="M51 834v374q0 76 55.5 131.5t131.5 55.5h313q76 0 131 -55t55 -132v-374q0 -78 -54.5 -132.5t-131.5 -54.5h-313q-77 0 -132 54.5t-55 132.5zM274 846q0 -20 14.5 -33.5t33.5 -13.5h145q20 0 33.5 13.5t13.5 33.5v350q0 19 -13.5 32t-33.5 13h-145q-19 0 -33.5 -13.5
t-14.5 -31.5v-350z" />
    <glyph glyph-name="guillemotright" unicode="&#xbb;" horiz-adv-x="894" 
d="M31 913h258l207 -374v-11q-13 -25 -34.5 -65t-67.5 -125.5t-76 -142t-29 -56.5h-256l219 393zM399 913h258l207 -374v-11q-13 -25 -34.5 -65t-67.5 -125.5t-76 -142t-29 -56.5h-256l220 393z" />
    <glyph glyph-name="onequarter" unicode="&#xbc;" horiz-adv-x="1658" 
d="M51 1192v205h342v-873h-229v668h-113zM195 -14l882 1542h248l-883 -1542h-247zM889 195v186l293 483h252l-283 -463h225v179h232v-580h-232v195h-487z" />
    <glyph glyph-name="onehalf" unicode="&#xbd;" horiz-adv-x="1755" 
d="M51 1192v205h342v-873h-229v668h-113zM201 -14l882 1542h248l-882 -1542h-248zM1034 541v172q0 70 44 114.5t118 44.5h324q74 0 117.5 -44.5t43.5 -114.5l-2 -117q0 -99 -82 -178l-235 -211h350v-207h-672v174l400 371q22 19 22 51v68q0 13 -13 20.5t-28 7.5h-125
q-14 0 -23 -9t-9 -26v-116h-230z" />
    <glyph glyph-name="threequarters" unicode="&#xbe;" horiz-adv-x="1951" 
d="M51 682v90h230v-35q0 -17 9 -26t23 -9h170q13 0 22 8.5t9 20.5v137q0 13 -8.5 21t-22.5 8h-202v168h192q41 0 41 37v86q0 13 -13 21t-28 8h-160q-14 0 -23 -9t-9 -26v-35h-230v90q0 70 44 115t118 45h358q74 0 118 -45t44 -115l-4 -145q-1 -37 -29 -68t-71 -45
q50 -11 82 -43.5t32 -81.5v-160q0 -79 -49.5 -125.5t-122.5 -46.5h-358q-74 0 -118 45t-44 115zM487 -14l883 1542h248l-883 -1542h-248zM1182 195v186l293 483h251l-282 -463h225v179h232v-580h-232v195h-487z" />
    <glyph glyph-name="questiondown" unicode="&#xbf;" horiz-adv-x="1169" 
d="M92 233q0 -97 68.5 -165t165.5 -68h497q97 0 165.5 68t68.5 165v263h-271v-201q0 -20 -13 -33.5t-32 -13.5h-309q-29 0 -49.5 20t-20.5 49v230q0 29 20.5 49t49.5 20h193q66 0 108.5 43t42.5 109v195h-270v-78q0 -20 -13 -33.5t-32 -13.5h-176q-82 0 -137.5 -55.5
t-55.5 -137.5v-412zM494 1100v297h321v-297h-321z" />
    <glyph glyph-name="Agrave" unicode="&#xc0;" horiz-adv-x="1331" 
d="M10 0l518 1399h275l518 -1399h-303l-98 276h-537l-98 -276h-275zM330 1817h307l158 -275h-279zM463 504h375l-189 528z" />
    <glyph glyph-name="Aacute" unicode="&#xc1;" horiz-adv-x="1331" 
d="M10 0h275l98 276h537l98 -276h303l-518 1399h-275zM463 504l186 528l189 -528h-375zM551 1542l158 275h307l-187 -275h-278z" />
    <glyph glyph-name="Acircumflex" unicode="&#xc2;" horiz-adv-x="1331" 
d="M10 0h275l98 276h537l98 -276h303l-518 1399h-275zM287 1542l282 266h199l270 -266h-274l-102 105l-109 -105h-266zM463 504l186 528l189 -528h-375z" />
    <glyph glyph-name="Atilde" unicode="&#xc3;" horiz-adv-x="1331" 
d="M10 0h275l98 276h537l98 -276h303l-518 1399h-275zM283 1493v225q0 65 37 95.5t106 9.5l455 -137v122h157v-211q0 -77 -35.5 -102t-109.5 -2l-453 139v-139h-157zM463 504l186 528l189 -528h-375z" />
    <glyph glyph-name="Adieresis" unicode="&#xc4;" horiz-adv-x="1331" 
d="M10 0l518 1399h275l518 -1399h-303l-98 276h-537l-98 -276h-275zM354 1579v215h269v-215h-269zM463 504h375l-189 528zM709 1579v215h268v-215h-268z" />
    <glyph glyph-name="Aring" unicode="&#xc5;" horiz-adv-x="1331" 
d="M10 0l469 1270q-47 22 -75.5 67t-28.5 101v121q0 77 54.5 131.5t131.5 54.5h211q76 0 131 -54.5t55 -131.5v-121q0 -56 -29.5 -101t-78.5 -69l471 -1268h-303l-98 276h-537l-98 -276h-275zM463 504h375l-189 528zM571 1450q0 -20 14 -33.5t33 -13.5h97q20 0 33.5 13.5
t13.5 33.5v96q0 19 -13.5 32t-33.5 13h-97q-19 0 -33 -13t-14 -32v-96z" />
    <glyph glyph-name="AE" unicode="&#xc6;" horiz-adv-x="1892" 
d="M10 0l867 1399l954 -2v-248h-707v-328h568v-248h-568v-325h707v-248h-979v276h-406l-161 -276h-275zM569 483h283v478z" />
    <glyph glyph-name="Ccedilla" unicode="&#xc7;" horiz-adv-x="1146" 
d="M113 231v932q0 97 68 165.5t165 68.5h698v-248h-591q-29 0 -49.5 -21t-20.5 -49v-762q0 -29 20.5 -49t49.5 -20h591v-248h-399v-74h88q73 0 104 -24t31 -90v-152q0 -69 -30 -93t-103 -24h-309v148h240v88h-168v221h-152q-97 0 -165 68t-68 163z" />
    <glyph glyph-name="Egrave" unicode="&#xc8;" horiz-adv-x="1173" 
d="M133 0v1397h979v-248h-706v-328h567v-248h-567v-325h706v-248h-979zM332 1815h307l158 -275h-279z" />
    <glyph glyph-name="Eacute" unicode="&#xc9;" horiz-adv-x="1173" 
d="M133 0h979v248h-706v325h567v248h-567v328h706v248h-979v-1397zM455 1540l157 275h308l-187 -275h-278z" />
    <glyph glyph-name="Ecircumflex" unicode="&#xca;" horiz-adv-x="1173" 
d="M133 0h979v248h-706v325h567v248h-567v328h706v248h-979v-1397zM236 1540l282 266h199l270 -266h-274l-103 105l-108 -105h-266z" />
    <glyph glyph-name="Edieresis" unicode="&#xcb;" horiz-adv-x="1173" 
d="M133 0v1397h979v-248h-706v-328h567v-248h-567v-325h706v-248h-979zM317 1577v215h269v-215h-269zM672 1577v215h268v-215h-268z" />
    <glyph glyph-name="Igrave" unicode="&#xcc;" horiz-adv-x="538" 
d="M-51 1815h307l158 -275h-279zM133 0v1397h273v-1397h-273z" />
    <glyph glyph-name="Iacute" unicode="&#xcd;" horiz-adv-x="538" 
d="M133 0h273v1397h-273v-1397zM141 1540l158 275h307l-186 -275h-279z" />
    <glyph glyph-name="Icircumflex" unicode="&#xce;" horiz-adv-x="538" 
d="M-115 1540l283 266h199l270 -266h-275l-102 105l-108 -105h-267zM133 0h273v1397h-273v-1397z" />
    <glyph glyph-name="Idieresis" unicode="&#xcf;" horiz-adv-x="538" 
d="M-43 1577v215h268v-215h-268zM133 0v1397h273v-1397h-273zM311 1577v215h269v-215h-269z" />
    <glyph glyph-name="Eth" unicode="&#xd0;" horiz-adv-x="1409" 
d="M20 610v224h113v563h721q183 0 312.5 -130t129.5 -313v-512q0 -184 -129.5 -313t-312.5 -129h-721v610h-113zM403 248h408q88 0 149.5 61.5t61.5 147.5v481q0 88 -61.5 149.5t-149.5 61.5h-408v-315h297v-224h-297v-362z" />
    <glyph glyph-name="Ntilde" unicode="&#xd1;" horiz-adv-x="1445" 
d="M133 2h270v926l631 -926h279v1397h-271v-928l-630 928h-279v-1397zM340 1493v225q0 65 37 95.5t106 9.5l455 -137v122h158v-211q0 -77 -36 -102t-110 -2l-452 139v-139h-158z" />
    <glyph glyph-name="Ograve" unicode="&#xd2;" 
d="M113 231v932q0 97 68 165.5t163 68.5h700q95 0 163.5 -68.5t68.5 -165.5v-932q0 -96 -68 -163.5t-164 -67.5h-700q-96 0 -163.5 67.5t-67.5 163.5zM383 317q0 -29 20.5 -49t49.5 -20h483q29 0 49.5 20t20.5 49v760q0 29 -20.5 50.5t-49.5 21.5h-483q-29 0 -49.5 -21.5
t-20.5 -50.5v-760zM383 1815h307l158 -275h-279z" />
    <glyph glyph-name="Oacute" unicode="&#xd3;" 
d="M113 231q0 -96 67.5 -163.5t163.5 -67.5h700q96 0 164 67.5t68 163.5v932q0 97 -68.5 165.5t-163.5 68.5h-700q-95 0 -163 -68.5t-68 -165.5v-932zM383 317v760q0 29 20.5 50.5t49.5 21.5h483q29 0 49.5 -21.5t20.5 -50.5v-760q0 -29 -20.5 -49t-49.5 -20h-483
q-29 0 -49.5 20t-20.5 49zM506 1540l158 275h307l-187 -275h-278z" />
    <glyph glyph-name="Ocircumflex" unicode="&#xd4;" 
d="M113 231q0 -96 67.5 -163.5t163.5 -67.5h700q96 0 164 67.5t68 163.5v932q0 97 -68.5 165.5t-163.5 68.5h-700q-95 0 -163 -68.5t-68 -165.5v-932zM291 1540l282 266h199l270 -266h-274l-102 105l-109 -105h-266zM383 317v760q0 29 20.5 50.5t49.5 21.5h483
q29 0 49.5 -21.5t20.5 -50.5v-760q0 -29 -20.5 -49t-49.5 -20h-483q-29 0 -49.5 20t-20.5 49z" />
    <glyph glyph-name="Otilde" unicode="&#xd5;" 
d="M113 231q0 -96 67.5 -163.5t163.5 -67.5h700q96 0 164 67.5t68 163.5v932q0 97 -68.5 165.5t-163.5 68.5h-700q-95 0 -163 -68.5t-68 -165.5v-932zM287 1491v225q0 65 37 95.5t106 9.5l455 -138v123h157v-211q0 -77 -35.5 -102t-109.5 -2l-453 139v-139h-157zM383 317
v760q0 29 20.5 50.5t49.5 21.5h483q29 0 49.5 -21.5t20.5 -50.5v-760q0 -29 -20.5 -49t-49.5 -20h-483q-29 0 -49.5 20t-20.5 49z" />
    <glyph glyph-name="Odieresis" unicode="&#xd6;" 
d="M113 231v932q0 97 68 165.5t163 68.5h700q95 0 163.5 -68.5t68.5 -165.5v-932q0 -96 -68 -163.5t-164 -67.5h-700q-96 0 -163.5 67.5t-67.5 163.5zM383 317q0 -29 20.5 -49t49.5 -20h483q29 0 49.5 20t20.5 49v760q0 29 -20.5 50.5t-49.5 21.5h-483q-29 0 -49.5 -21.5
t-20.5 -50.5v-760zM383 1577v215h268v-215h-268zM737 1577v215h269v-215h-269z" />
    <glyph glyph-name="multiply" unicode="&#xd7;" horiz-adv-x="964" 
d="M82 438l229 230l-223 225l166 168l225 -225l230 229l174 -176l-230 -230l228 -225l-168 -166l-226 226l-229 -230z" />
    <glyph glyph-name="Oslash" unicode="&#xd8;" 
d="M104 -145l103 188q-94 71 -94 188v932q0 97 68 165.5t163 68.5h596l145 266l172 -94l-108 -199q58 -30 92.5 -85t34.5 -122v-932q0 -96 -68 -163.5t-164 -67.5h-638l-136 -250zM383 367l424 782h-354q-29 0 -49.5 -21.5t-20.5 -50.5v-710zM539 248h397q29 0 49.5 20
t20.5 49v760q0 3 -5 23z" />
    <glyph glyph-name="Ugrave" unicode="&#xd9;" horiz-adv-x="1411" 
d="M123 428v971h272v-955q0 -88 61.5 -149.5t147.5 -61.5h203q88 0 148.5 61.5t60.5 149.5v955h272v-971q0 -183 -129.5 -312.5t-312.5 -129.5h-281q-183 0 -312.5 129.5t-129.5 312.5zM420 1776h307l158 -275h-279z" />
    <glyph glyph-name="Uacute" unicode="&#xda;" horiz-adv-x="1411" 
d="M123 428q0 -183 129.5 -312.5t312.5 -129.5h281q183 0 312.5 129.5t129.5 312.5v971h-272v-955q0 -88 -60.5 -149.5t-148.5 -61.5h-203q-86 0 -147.5 61.5t-61.5 149.5v955h-272v-971zM516 1501l158 275h307l-186 -275h-279z" />
    <glyph glyph-name="Ucircumflex" unicode="&#xdb;" horiz-adv-x="1411" 
d="M123 428q0 -183 129.5 -312.5t312.5 -129.5h281q183 0 312.5 129.5t129.5 312.5v971h-272v-955q0 -88 -60.5 -149.5t-148.5 -61.5h-203q-86 0 -147.5 61.5t-61.5 149.5v955h-272v-971zM330 1501l282 266h199l270 -266h-274l-102 105l-109 -105h-266z" />
    <glyph glyph-name="Udieresis" unicode="&#xdc;" horiz-adv-x="1411" 
d="M123 428v971h272v-955q0 -88 61.5 -149.5t147.5 -61.5h203q88 0 148.5 61.5t60.5 149.5v955h272v-971q0 -183 -129.5 -312.5t-312.5 -129.5h-281q-183 0 -312.5 129.5t-129.5 312.5zM393 1538v215h269v-215h-269zM748 1538v215h268v-215h-268z" />
    <glyph glyph-name="Yacute" unicode="&#xdd;" horiz-adv-x="1183" 
d="M10 1399l447 -737v-662h270v662l447 737h-283l-283 -471l-280 471h-318zM442 1501l158 275h307l-186 -275h-279z" />
    <glyph glyph-name="Thorn" unicode="&#xde;" horiz-adv-x="1122" 
d="M133 0v1397l270 2v-219h424q97 0 165.5 -68.5t68.5 -165.5v-442q0 -97 -68.5 -165.5t-165.5 -68.5h-424v-270h-270zM403 477h318q29 0 49.5 20.5t20.5 49.5v354q0 29 -20.5 50.5t-49.5 21.5h-318v-496z" />
    <glyph glyph-name="germandbls" unicode="&#xdf;" horiz-adv-x="1173" 
d="M92 0v1118q0 116 82 198.5t199 82.5h403q97 0 165.5 -68.5t68.5 -165.5v-170q0 -63 -32.5 -116.5t-86.5 -85.5q85 -12 143 -77.5t58 -152.5v-332q0 -95 -68.5 -163t-165.5 -68h-319v188h229q20 0 37.5 13t17.5 30v344q0 17 -17.5 30t-37.5 13h-205v189h123q20 0 37.5 13
t17.5 30v295q0 17 -17.5 30t-37.5 13h-256q-29 0 -49.5 -20.5t-20.5 -49.5v-1118h-268z" />
    <glyph glyph-name="agrave" unicode="&#xe0;" horiz-adv-x="1036" 
d="M72 233v152q0 97 67 165t164 68h373v152q0 29 -20.5 49.5t-49.5 20.5h-198q-19 0 -32.5 -13.5t-13.5 -33.5v-23h-245v45q0 97 68 165.5t165 68.5h314q117 0 198.5 -81.5t81.5 -197.5v-770h-268v72l-58 -39q-51 -33 -104 -33h-211q-97 0 -164 68t-67 165zM252 1425h307
l158 -274h-279zM315 238q0 -20 13.5 -34t33.5 -14h267q20 0 33.5 14t13.5 34v194h-314q-20 0 -33.5 -13.5t-13.5 -33.5v-147z" />
    <glyph glyph-name="aacute" unicode="&#xe1;" horiz-adv-x="1036" 
d="M72 233q0 -97 67 -165t164 -68h211q53 0 104 33l58 39v-72h268v770q0 116 -81.5 197.5t-198.5 81.5h-314q-97 0 -165 -68.5t-68 -165.5v-45h245v23q0 20 13.5 33.5t32.5 13.5h198q29 0 49.5 -20.5t20.5 -49.5v-152h-373q-97 0 -164 -68t-67 -165v-152zM315 238v147
q0 20 13.5 33.5t33.5 13.5h314v-194q0 -20 -13.5 -34t-33.5 -14h-267q-20 0 -33.5 14t-13.5 34zM362 1151l158 274h307l-186 -274h-279z" />
    <glyph glyph-name="acircumflex" unicode="&#xe2;" horiz-adv-x="1036" 
d="M72 233q0 -97 67 -165t164 -68h211q53 0 104 33l58 39v-72h268v770q0 116 -81.5 197.5t-198.5 81.5h-314q-97 0 -165 -68.5t-68 -165.5v-45h245v23q0 20 13.5 33.5t32.5 13.5h198q29 0 49.5 -20.5t20.5 -49.5v-152h-373q-97 0 -164 -68t-67 -165v-152zM166 1151l283 266
h198l271 -266h-275l-102 104l-109 -104h-266zM315 238v147q0 20 13.5 33.5t33.5 13.5h314v-194q0 -20 -13.5 -34t-33.5 -14h-267q-20 0 -33.5 14t-13.5 34z" />
    <glyph glyph-name="atilde" unicode="&#xe3;" horiz-adv-x="1036" 
d="M72 233q0 -97 67 -165t164 -68h211q53 0 104 33l58 39v-72h268v770q0 116 -81.5 197.5t-198.5 81.5h-314q-97 0 -165 -68.5t-68 -165.5v-45h245v23q0 20 13.5 33.5t32.5 13.5h198q29 0 49.5 -20.5t20.5 -49.5v-152h-373q-97 0 -164 -68t-67 -165v-152zM139 1147v225
q0 65 37.5 95.5t106.5 9.5l454 -138v123h158v-211q0 -77 -35.5 -102t-109.5 -2l-453 139v-139h-158zM315 238v147q0 20 13.5 33.5t33.5 13.5h314v-194q0 -20 -13.5 -34t-33.5 -14h-267q-20 0 -33.5 14t-13.5 34z" />
    <glyph glyph-name="adieresis" unicode="&#xe4;" horiz-adv-x="1036" 
d="M72 233v152q0 97 67 165t164 68h373v152q0 29 -20.5 49.5t-49.5 20.5h-198q-19 0 -32.5 -13.5t-13.5 -33.5v-23h-245v45q0 97 68 165.5t165 68.5h314q117 0 198.5 -81.5t81.5 -197.5v-770h-268v72l-58 -39q-51 -33 -104 -33h-211q-97 0 -164 68t-67 165zM217 1188v215
h268v-215h-268zM315 238q0 -20 13.5 -34t33.5 -14h267q20 0 33.5 14t13.5 34v194h-314q-20 0 -33.5 -13.5t-13.5 -33.5v-147zM571 1188v215h269v-215h-269z" />
    <glyph glyph-name="aring" unicode="&#xe5;" horiz-adv-x="1036" 
d="M72 233v152q0 97 67 165t164 68h373v152q0 29 -20.5 49.5t-49.5 20.5h-198q-19 0 -32.5 -13.5t-13.5 -33.5v-23h-245v45q0 97 68 165.5t165 68.5h314q117 0 198.5 -81.5t81.5 -197.5v-770h-268v72l-58 -39q-51 -33 -104 -33h-211q-97 0 -164 68t-67 165zM244 1317v121
q0 76 55 131t131 55h211q77 0 131.5 -55t54.5 -131v-121q0 -78 -54.5 -132.5t-131.5 -54.5h-211q-77 0 -131.5 54.5t-54.5 132.5zM315 238q0 -20 13.5 -34t33.5 -14h267q20 0 33.5 14t13.5 34v194h-314q-20 0 -33.5 -13.5t-13.5 -33.5v-147zM440 1329q0 -20 14 -33.5
t33 -13.5h97q20 0 33.5 13.5t13.5 33.5v96q0 19 -13.5 32t-33.5 13h-97q-19 0 -33 -13t-14 -32v-96z" />
    <glyph glyph-name="ae" unicode="&#xe6;" horiz-adv-x="1632" 
d="M72 233v152q0 97 67 165t164 68h373v152v8q-3 26 -23.5 44t-46.5 18h-198q-19 0 -32.5 -13.5t-13.5 -33.5v-23h-245v45q0 97 68 165.5t165 68.5h314q74 0 145 -41q71 41 147 41h361q97 0 165 -68.5t68 -165.5v-379l-4 -4h-602v-151q0 -29 20.5 -49.5t49.5 -20.5h524v-211
h-582q-68 0 -126 29t-97 80l-115 -76q-51 -33 -104 -33h-211q-97 0 -164 68t-67 165zM315 238q0 -20 13.5 -34t33.5 -14h267q20 0 33.5 14t13.5 34v194h-314q-20 0 -33.5 -13.5t-13.5 -33.5v-147zM944 618h359l2 3v172q0 20 -13 33.5t-32 13.5h-269q-20 0 -33.5 -13.5
t-13.5 -33.5v-13v-10v-152z" />
    <glyph glyph-name="ccedilla" unicode="&#xe7;" horiz-adv-x="884" 
d="M82 281v489q0 116 81.5 197.5t196.5 81.5h443v-209h-383q-29 0 -49.5 -21t-20.5 -49v-489q0 -29 20.5 -49.5t49.5 -20.5h383v-211h-309v-70h88q73 0 104 -24t31 -90v-152q0 -69 -30 -93t-103 -24h-310v148h240v88h-168v217q-111 5 -187.5 86t-76.5 195z" />
    <glyph glyph-name="egrave" unicode="&#xe8;" horiz-adv-x="1038" 
d="M82 281v489q0 116 81.5 197.5t198.5 81.5h361q97 0 165 -68.5t68 -165.5v-379l-4 -4h-602v-151q0 -29 20.5 -49.5t49.5 -20.5h524v-211h-582q-117 0 -198.5 82t-81.5 199zM225 1425h307l158 -274h-278zM350 618h359l2 3v172q0 20 -13 33.5t-32 13.5h-269
q-20 0 -33.5 -13.5t-13.5 -33.5v-175z" />
    <glyph glyph-name="eacute" unicode="&#xe9;" horiz-adv-x="1038" 
d="M82 281q0 -117 81.5 -199t198.5 -82h582v211h-524q-29 0 -49.5 20.5t-20.5 49.5v151h602l4 4v379q0 97 -68 165.5t-165 68.5h-361q-117 0 -198.5 -81.5t-81.5 -197.5v-489zM350 618v175q0 20 13.5 33.5t33.5 13.5h269q19 0 32 -13.5t13 -33.5v-172l-2 -3h-359zM371 1151
l157 274h308l-187 -274h-278z" />
    <glyph glyph-name="ecircumflex" unicode="&#xea;" horiz-adv-x="1038" 
d="M82 281q0 -117 81.5 -199t198.5 -82h582v211h-524q-29 0 -49.5 20.5t-20.5 49.5v151h602l4 4v379q0 97 -68 165.5t-165 68.5h-361q-117 0 -198.5 -81.5t-81.5 -197.5v-489zM139 1151l283 266h199l270 -266h-275l-102 104l-108 -104h-267zM350 618v175q0 20 13.5 33.5
t33.5 13.5h269q19 0 32 -13.5t13 -33.5v-172l-2 -3h-359z" />
    <glyph glyph-name="edieresis" unicode="&#xeb;" horiz-adv-x="1038" 
d="M82 281v489q0 116 81.5 197.5t198.5 81.5h361q97 0 165 -68.5t68 -165.5v-379l-4 -4h-602v-151q0 -29 20.5 -49.5t49.5 -20.5h524v-211h-582q-117 0 -198.5 82t-81.5 199zM207 1188v215h268v-215h-268zM350 618h359l2 3v172q0 20 -13 33.5t-32 13.5h-269
q-20 0 -33.5 -13.5t-13.5 -33.5v-175zM561 1188v215h268v-215h-268z" />
    <glyph glyph-name="igrave" unicode="&#xec;" horiz-adv-x="452" 
d="M-98 1425h307l158 -274h-279zM92 0v1049h268v-1049h-268z" />
    <glyph glyph-name="iacute" unicode="&#xed;" horiz-adv-x="452" 
d="M92 0h268v1049h-268v-1049zM98 1151l158 274h307l-186 -274h-279z" />
    <glyph glyph-name="icircumflex" unicode="&#xee;" horiz-adv-x="452" 
d="M-150 1151l283 266h199l270 -266h-274l-103 104l-108 -104h-267zM92 0h268v1049h-268v-1049z" />
    <glyph glyph-name="idieresis" unicode="&#xef;" horiz-adv-x="452" 
d="M-86 1188v215h268v-215h-268zM92 0v1049h268v-1049h-268zM268 1188v215h269v-215h-269z" />
    <glyph glyph-name="eth" unicode="&#xf0;" horiz-adv-x="1128" 
d="M82 281v489q0 116 81.5 197.5t196.5 81.5h256q55 0 103 -31l59 -39l2 2l-112 154l-303 -27v152l198 16l-88 121l291 2l70 -99l221 21v-152l-119 -10l76 -104q33 -51 33 -105l-3 -669q0 -117 -81 -199t-197 -82h-406q-116 0 -197 82t-81 199zM350 281q0 -29 20.5 -49.5
t49.5 -20.5h285q29 0 49 20.5t20 49.5l4 489q0 28 -21 49t-50 21h-287q-29 0 -49.5 -21t-20.5 -49v-489z" />
    <glyph glyph-name="ntilde" unicode="&#xf1;" horiz-adv-x="1091" 
d="M92 0v1049h268v-70l58 39q48 31 102 31h201q116 0 197 -82t81 -199v-768h-268v768q0 30 -20 51t-49 21h-232q-29 0 -49.5 -21.5t-20.5 -50.5v-768h-268zM162 1151v225q0 65 37 95.5t106 9.5l455 -138v123h158v-211q0 -77 -36 -102t-110 -2l-453 139v-139h-157z" />
    <glyph glyph-name="ograve" unicode="&#xf2;" horiz-adv-x="1071" 
d="M82 281v487q0 117 81 199t197 82h351q116 0 197 -82t81 -199v-487q0 -117 -81 -199t-197 -82h-351q-116 0 -197 82t-81 199zM231 1425h308l157 -274h-278zM348 281q0 -29 21 -49.5t49 -20.5h233q29 0 49.5 20.5t20.5 49.5v487q0 29 -20.5 50.5t-49.5 21.5h-233
q-28 0 -49 -21.5t-21 -50.5v-487z" />
    <glyph glyph-name="oacute" unicode="&#xf3;" horiz-adv-x="1071" 
d="M82 281q0 -117 81 -199t197 -82h351q116 0 197 82t81 199v487q0 117 -81 199t-197 82h-351q-116 0 -197 -82t-81 -199v-487zM348 281v487q0 29 21 50.5t49 21.5h233q29 0 49.5 -21.5t20.5 -50.5v-487q0 -29 -20.5 -49.5t-49.5 -20.5h-233q-28 0 -49 20.5t-21 49.5z
M381 1151l158 274h307l-187 -274h-278z" />
    <glyph glyph-name="ocircumflex" unicode="&#xf4;" horiz-adv-x="1071" 
d="M82 281q0 -117 81 -199t197 -82h351q116 0 197 82t81 199v487q0 117 -81 199t-197 82h-351q-116 0 -197 -82t-81 -199v-487zM152 1151l282 266h199l270 -266h-274l-103 104l-108 -104h-266zM348 281v487q0 29 21 50.5t49 21.5h233q29 0 49.5 -21.5t20.5 -50.5v-487
q0 -29 -20.5 -49.5t-49.5 -20.5h-233q-28 0 -49 20.5t-21 49.5z" />
    <glyph glyph-name="otilde" unicode="&#xf5;" horiz-adv-x="1071" 
d="M82 281q0 -117 81 -199t197 -82h351q116 0 197 82t81 199v487q0 117 -81 199t-197 82h-351q-116 0 -197 -82t-81 -199v-487zM170 1143v225q0 65 37 95.5t106 9.5l455 -138v123h158v-211q0 -77 -36 -102t-110 -2l-452 139v-139h-158zM348 281v487q0 29 21 50.5t49 21.5
h233q29 0 49.5 -21.5t20.5 -50.5v-487q0 -29 -20.5 -49.5t-49.5 -20.5h-233q-28 0 -49 20.5t-21 49.5z" />
    <glyph glyph-name="odieresis" unicode="&#xf6;" horiz-adv-x="1071" 
d="M82 281v487q0 117 81 199t197 82h351q116 0 197 -82t81 -199v-487q0 -117 -81 -199t-197 -82h-351q-116 0 -197 82t-81 199zM223 1188v215h269v-215h-269zM348 281q0 -29 21 -49.5t49 -20.5h233q29 0 49.5 20.5t20.5 49.5v487q0 29 -20.5 50.5t-49.5 21.5h-233
q-28 0 -49 -21.5t-21 -50.5v-487zM578 1188v215h268v-215h-268z" />
    <glyph glyph-name="divide" unicode="&#xf7;" horiz-adv-x="1075" 
d="M82 612h911v224h-911v-224zM365 227v256h321v-256h-321zM365 954v256h321v-256h-321z" />
    <glyph glyph-name="oslash" unicode="&#xf8;" horiz-adv-x="1071" 
d="M82 281v487q0 117 81 199t197 82h316l96 182l160 -68l-80 -153q62 -37 99.5 -102t37.5 -140v-487q0 -117 -81 -199t-197 -82h-351q-24 0 -34 2l-82 -158l-154 78l80 154q-88 82 -88 205zM348 418l219 422h-149q-28 0 -49 -21.5t-21 -50.5v-350zM434 211h217
q29 0 49.5 20.5t20.5 49.5v479z" />
    <glyph glyph-name="ugrave" unicode="&#xf9;" horiz-adv-x="1093" 
d="M92 279v768h268v-768q0 -29 20.5 -49.5t49.5 -20.5h234q29 0 49 20.5t20 49.5v768h268v-1047h-268v70l-57 -39q-48 -31 -105 -31h-198q-116 0 -198.5 82t-82.5 197zM256 1423h307l158 -274h-279z" />
    <glyph glyph-name="uacute" unicode="&#xfa;" horiz-adv-x="1093" 
d="M92 279q0 -115 82.5 -197t198.5 -82h198q57 0 105 31l57 39v-70h268v1047h-268v-768q0 -29 -20 -49.5t-49 -20.5h-234q-29 0 -49.5 20.5t-20.5 49.5v768h-268v-768zM399 1149l158 274h307l-186 -274h-279z" />
    <glyph glyph-name="ucircumflex" unicode="&#xfb;" horiz-adv-x="1093" 
d="M92 279q0 -115 82.5 -197t198.5 -82h198q57 0 105 31l57 39v-70h268v1047h-268v-768q0 -29 -20 -49.5t-49 -20.5h-234q-29 0 -49.5 20.5t-20.5 49.5v768h-268v-768zM180 1149l283 266h199l270 -266h-275l-102 104l-109 -104h-266z" />
    <glyph glyph-name="udieresis" unicode="&#xfc;" horiz-adv-x="1093" 
d="M92 279v768h268v-768q0 -29 20.5 -49.5t49.5 -20.5h234q29 0 49 20.5t20 49.5v768h268v-1047h-268v70l-57 -39q-48 -31 -105 -31h-198q-116 0 -198.5 82t-82.5 197zM236 1186v215h268v-215h-268zM590 1186v215h268v-215h-268z" />
    <glyph glyph-name="yacute" unicode="&#xfd;" horiz-adv-x="1056" 
d="M10 1047h281l272 -705l223 705h261l-441 -1203q-41 -107 -110 -149.5t-162 -42.5h-287v209h248q49 0 67 41l52 106zM401 1149l158 274h307l-186 -274h-279z" />
    <glyph glyph-name="thorn" unicode="&#xfe;" horiz-adv-x="1083" 
d="M92 -348v1747h268v-420l58 39q48 31 104 31h199q117 0 198.5 -82t81.5 -199v-487q0 -117 -81.5 -199t-198.5 -82h-199q-53 0 -104 33l-58 37v-418h-268zM360 281q0 -29 20.5 -49.5t49.5 -20.5h234q29 0 49 20.5t20 49.5v487q0 30 -20 51t-49 21h-234q-29 0 -49.5 -21.5
t-20.5 -50.5v-487z" />
    <glyph glyph-name="ydieresis" unicode="&#xff;" horiz-adv-x="1056" 
d="M10 1047h281l272 -705l223 705h261l-441 -1203q-41 -107 -110 -149.5t-162 -42.5h-287v209h248q49 0 67 41l52 106zM238 1186v215h268v-215h-268zM592 1186v215h268v-215h-268z" />
    <glyph glyph-name="OE" unicode="&#x152;" horiz-adv-x="1873" 
d="M113 231v932q0 97 68 165.5t163 68.5h1468v-248h-706v-328h567v-248h-567v-325h706v-248h-1468q-96 0 -163.5 67.5t-67.5 163.5zM383 317q0 -29 20.5 -49t49.5 -20h381v901h-381q-29 0 -49.5 -21.5t-20.5 -50.5v-760z" />
    <glyph glyph-name="oe" unicode="&#x153;" horiz-adv-x="1675" 
d="M82 281v487q0 117 81 199t197 82h605h34h361q97 0 165 -68.5t68 -165.5v-379l-4 -4h-602v-151q0 -29 20.5 -49.5t49.5 -20.5h524v-211h-582h-24h-615q-116 0 -197 82t-81 199zM348 281q0 -29 21 -49.5t49 -20.5h301v629h-301q-28 0 -49 -21.5t-21 -50.5v-487zM987 618
h359l2 3v172q0 20 -13 33.5t-32 13.5h-269q-20 0 -33.5 -13.5t-13.5 -33.5v-175z" />
    <glyph glyph-name="Ydieresis" unicode="&#x178;" horiz-adv-x="1183" 
d="M10 1399h318l280 -471l283 471h283l-447 -737v-662h-270v662zM281 1538v215h268v-215h-268zM635 1538v215h268v-215h-268z" />
    <glyph glyph-name="circumflex" unicode="&#x2c6;" horiz-adv-x="1024" 
d="M88 1047l283 266h198l271 -266h-275l-102 104l-109 -104h-266z" />
    <glyph glyph-name="tilde" unicode="&#x2dc;" horiz-adv-x="944" 
d="M119 803v225q0 65 37 95.5t106 9.5l455 -138v123h157v-211q0 -77 -35.5 -102t-109.5 -2l-453 139v-139h-157z" />
    <glyph glyph-name="uni2000" unicode="&#x2000;" horiz-adv-x="915" 
 />
    <glyph glyph-name="uni2001" unicode="&#x2001;" horiz-adv-x="1831" 
 />
    <glyph glyph-name="uni2002" unicode="&#x2002;" horiz-adv-x="915" 
 />
    <glyph glyph-name="uni2003" unicode="&#x2003;" horiz-adv-x="1831" 
 />
    <glyph glyph-name="uni2004" unicode="&#x2004;" horiz-adv-x="610" 
 />
    <glyph glyph-name="uni2005" unicode="&#x2005;" horiz-adv-x="457" 
 />
    <glyph glyph-name="uni2006" unicode="&#x2006;" horiz-adv-x="305" 
 />
    <glyph glyph-name="uni2007" unicode="&#x2007;" horiz-adv-x="305" 
 />
    <glyph glyph-name="uni2008" unicode="&#x2008;" horiz-adv-x="228" 
 />
    <glyph glyph-name="uni2009" unicode="&#x2009;" horiz-adv-x="366" 
 />
    <glyph glyph-name="uni200A" unicode="&#x200a;" horiz-adv-x="101" 
 />
    <glyph glyph-name="uni2010" unicode="&#x2010;" horiz-adv-x="925" 
d="M82 508v223h762v-223h-762z" />
    <glyph glyph-name="uni2011" unicode="&#x2011;" horiz-adv-x="925" 
d="M82 508v223h762v-223h-762z" />
    <glyph glyph-name="figuredash" unicode="&#x2012;" horiz-adv-x="925" 
d="M82 508v223h762v-223h-762z" />
    <glyph glyph-name="endash" unicode="&#x2013;" horiz-adv-x="1075" 
d="M82 508v223h911v-223h-911z" />
    <glyph glyph-name="emdash" unicode="&#x2014;" horiz-adv-x="1280" 
d="M82 508v223h1116v-223h-1116z" />
    <glyph glyph-name="quoteleft" unicode="&#x2018;" horiz-adv-x="497" 
d="M72 891v199l151 309l203 -2l-125 -250h90v-256h-319z" />
    <glyph glyph-name="quoteright" unicode="&#x2019;" horiz-adv-x="497" 
d="M72 889l123 250h-89v256h320v-199l-152 -309z" />
    <glyph glyph-name="quotesinglbase" unicode="&#x201a;" horiz-adv-x="485" 
d="M49 -250l123 250h-88v256h319v-199l-151 -309z" />
    <glyph glyph-name="quotedblleft" unicode="&#x201c;" horiz-adv-x="894" 
d="M72 889v198l151 310l203 -2l-125 -250h90v-256h-319zM469 889v198l152 310l202 -2l-125 -250h90v-256h-319z" />
    <glyph glyph-name="quotedblright" unicode="&#x201d;" horiz-adv-x="894" 
d="M72 893l123 250h-89v256h320v-199l-152 -309zM469 893l123 250h-88v256h319v-199l-151 -309z" />
    <glyph glyph-name="quotedblbase" unicode="&#x201e;" horiz-adv-x="886" 
d="M68 -248l122 250h-88v256h320v-199l-152 -309zM465 -248l123 250h-88v256h319v-199l-151 -309z" />
    <glyph glyph-name="bullet" unicode="&#x2022;" horiz-adv-x="485" 
d="M82 532v338h321v-338h-321z" />
    <glyph glyph-name="ellipsis" unicode="&#x2026;" horiz-adv-x="1409" 
d="M82 0v256h321v-256h-321zM543 0v256h321v-256h-321zM1006 0v256h321v-256h-321z" />
    <glyph glyph-name="uni202F" unicode="&#x202f;" horiz-adv-x="366" 
 />
    <glyph glyph-name="guilsinglleft" unicode="&#x2039;" horiz-adv-x="526" 
d="M31 514v10q13 25 34.5 65t67.5 125.5t76 142t29 56.5h256l-222 -393l224 -381h-258z" />
    <glyph glyph-name="guilsinglright" unicode="&#x203a;" horiz-adv-x="526" 
d="M31 913h258l207 -374v-11q-13 -25 -34.5 -65t-67.5 -125.5t-76 -142t-29 -56.5h-256l219 393z" />
    <glyph glyph-name="uni205F" unicode="&#x205f;" horiz-adv-x="457" 
 />
    <glyph glyph-name="Euro" unicode="&#x20ac;" horiz-adv-x="1255" 
d="M72 444v209h149v111h-149v211h149v188q0 97 68.5 165.5t165.5 68.5h698v-248h-592q-29 0 -49 -21t-20 -49v-104h423v-211h-423v-111h423v-209h-423v-127q0 -29 20 -49t49 -20h592v-248h-698q-97 0 -165.5 68t-68.5 163v213h-149z" />
    <glyph glyph-name="trademark" unicode="&#x2122;" horiz-adv-x="2013" 
d="M31 1194v203h784v-203h-266v-668h-252v668h-266zM883 524v873h233l297 -469l273 469h215v-873h-232v480l-217 -363h-149l-191 348v-465h-229z" />
    <glyph glyph-name="uni25FC" unicode="&#x25fc;" horiz-adv-x="1044" 
d="M0 0v1044h1044v-1044h-1044z" />
    <glyph glyph-name="uniFB01" unicode="&#xfb01;" horiz-adv-x="1198" 
d="M61 840v209h140v69q0 116 81.5 198.5t198.5 82.5h258v-211h-200q-29 0 -49.5 -20.5t-20.5 -49.5v-69h256v-209h-256v-840h-268v840h-140zM838 0h268v1049h-268v-1049zM838 1188h268v211h-268v-211z" />
    <glyph glyph-name="uniFB02" unicode="&#xfb02;" horiz-adv-x="1288" 
d="M61 840v209h140v69q0 116 81.5 198.5t198.5 82.5h258v-211h-200q-29 0 -49.5 -20.5t-20.5 -49.5v-69h256v-209h-256v-840h-268v840h-140zM836 270v1127h268v-1127q0 -29 20.5 -49t49.5 -20h104v-211h-164q-116 0 -197 81.5t-81 198.5z" />
    </font>
</defs>
</svg>
